<svg preserveAspectRatio="none" overflow="visible" style="display: block;" width="22.2292" height="17.1429" viewBox="0 0 22.2292 17.1429" fill="none" xmlns="http://www.w3.org/2000/svg">
<g id="logomark">
<path id="Vector" d="M9.55135 0.256248C8.05888 0.757166 6.84363 2.34963 4.41318 5.53457C1.41499 9.46346 -0.0841059 11.4279 0.00364093 13.0917C0.0626842 14.2113 0.529188 15.2618 1.30338 16.0184C2.45393 17.1429 4.82543 17.1429 9.56844 17.1429H9.83236C10.9923 17.1429 12.09 16.5854 12.8196 15.6292C15.222 12.481 16.4232 10.907 17.9751 10.6696C18.3523 10.6119 18.7353 10.6119 19.1126 10.6696C20.1531 10.8288 21.0361 11.5889 22.2292 13.0217C20.3205 9.22491 16.8167 1.6451 12.6787 0.256248C11.6608 -0.0854159 10.5693 -0.0854159 9.55135 0.256248Z" fill="#646464"/>
</g>
</svg>
